<?xml version="1.0" encoding="UTF-8"?>
<svg width="16px" height="16px" viewBox="0 0 16 16" version="1.1" xmlns="http://www.w3.org/2000/svg" xmlns:xlink="http://www.w3.org/1999/xlink">
    <!-- Generator: Sketch 63.1 (92452) - https://sketch.com -->
    <title>ic-instagram</title>
    <desc>Created with Sketch.</desc>
    <g id="Page-1" stroke="none" stroke-width="1" fill="none" fill-rule="evenodd">
        <g id="ic-instagram">
            <rect id="base" x="0" y="9.09494702e-13" width="16" height="16"></rect>
            <path d="M11.3024515,15.9437793 C12.5841788,15.8830784 13.7195056,15.5903124 14.6549133,14.6513483 C15.5902862,13.7159406 15.8830522,12.5806138 15.9473094,11.2988865 C16.0223052,9.97790069 16.0223052,6.02209059 15.9473094,4.70110475 C15.8866434,3.41937751 15.5938774,2.2840507 14.6549133,1.34864294 C13.7195056,0.413270045 12.5841788,0.120504047 11.3024515,0.0562468437 C9.98146569,-0.0187489479 6.02206444,-0.0187489479 4.7010786,0.0562468437 C3.42294251,0.116912896 2.2876157,0.409678894 1.34865166,1.34508665 C0.40968761,2.28049442 0.120477898,3.41582122 0.0562206946,4.69754846 C-0.0187402315,6.01853431 -0.0187402315,9.97790069 0.0562206946,11.2988865 C0.116921612,12.5806138 0.40968761,13.7159406 1.34865166,14.6513483 C2.2876157,15.5867561 3.41938622,15.8794872 4.7010786,15.9437793 C6.02206444,16.0187402 9.98146569,16.0187402 11.3024515,15.9437793 Z M8.00354321,14.5585014 C6.83966152,14.5585014 4.33694283,14.6513483 3.28728067,14.2371805 C2.58752914,13.9587094 2.04840319,13.4196183 1.76637578,12.7162756 C1.34865166,11.6630572 1.44505489,9.16389476 1.44505489,8.00001307 C1.44505489,6.83609652 1.35220794,4.33337782 1.76637578,3.28371566 C2.0448469,2.58396414 2.58393799,2.04483818 3.28728067,1.76281077 C4.34049911,1.34508665 6.83966152,1.44148989 8.00354321,1.44148989 C9.16745977,1.44148989 11.6701785,1.34864294 12.7198406,1.76281077 C13.4195921,2.0412819 13.9587181,2.58037299 14.2407455,3.28371566 C14.6584696,4.33693411 14.5620664,6.83609652 14.5620664,8.00001307 C14.5620664,9.16389476 14.6584696,11.6666135 14.2407455,12.7162756 C13.9622744,13.4160271 13.4231833,13.9551531 12.7198406,14.2371805 C11.6666222,14.6549046 9.16745977,14.5585014 8.00354321,14.5585014 Z M12.2735616,4.68680987 C12.801949,4.68680987 13.2303768,4.26197318 13.2303768,3.72999467 C13.2303768,3.2016073 12.801949,2.77317946 12.2735616,2.77317946 C11.7451743,2.77317946 11.3167464,3.2016073 11.3167464,3.72999467 C11.3167464,4.25838203 11.7415831,4.68680987 12.2735616,4.68680987 Z M8.00354321,12.1021887 C10.2742317,12.1021887 12.1057537,10.2706667 12.1057537,8.00001307 C12.1057537,5.72932459 10.2742317,3.89780254 8.00354321,3.89780254 C5.7328896,3.89780254 3.90136755,5.72932459 3.90136755,8.00001307 C3.90136755,10.2706667 5.7328896,12.1021887 8.00354321,12.1021887 Z M8.00354321,10.6669485 C6.5361918,10.6669485 5.33660779,9.47092077 5.33660779,8.00001307 C5.33660779,6.52907051 6.53263551,5.33304279 8.00354321,5.33304279 C9.47448577,5.33304279 10.6705135,6.52907051 10.6705135,8.00001307 C10.6705135,9.47092077 9.47092949,10.6669485 8.00354321,10.6669485 Z" id="i" fill="#000000" fill-rule="nonzero"></path>
        </g>
    </g>
</svg>