<?xml version="1.0" encoding="UTF-8"?>
<svg width="16px" height="13px" viewBox="0 0 16 13" version="1.1" xmlns="http://www.w3.org/2000/svg" xmlns:xlink="http://www.w3.org/1999/xlink">
    <!-- Generator: Sketch 63.1 (92452) - https://sketch.com -->
    <title>ic-twitter</title>
    <desc>Created with Sketch.</desc>
    <g id="Page-1" stroke="none" stroke-width="1" fill="none" fill-rule="evenodd">
        <g id="ic-twitter" transform="translate(0.000000, -2.000000)">
            <rect id="base" x="0" y="0" width="16" height="16"></rect>
            <path d="M5.03554167,14.9949531 C11.0660517,14.9949531 14.3655333,10 14.3655333,5.66499201 C14.3655333,5.5228711 14.3655333,5.38068917 14.3553709,5.23856826 C14.9949608,4.77155598 15.5533735,4.19287946 16,3.54315774 C15.4111916,3.79694289 14.7716018,3.97971336 14.1116871,4.05075856 C14.7918655,3.64469011 15.3096287,3.00510027 15.5533125,2.24365327 C14.923824,2.61929558 14.213189,2.89340551 13.4720973,3.03552641 C12.8730655,2.39593657 12.0203095,2 11.0761226,2 C9.25888542,2 7.79693526,3.47208203 7.79693526,5.27918731 C7.79693526,5.53300298 7.82739192,5.78678813 7.87814285,6.0304414 C5.15736831,5.88828998 2.73093693,4.58881603 1.116734,2.59897079 C0.832431154,3.08627734 0.670046501,3.64465959 0.670046501,4.25379278 C0.670046501,5.39085156 1.24869251,6.39592131 2.13193562,6.98476023 C1.59390867,6.96449648 1.08624682,6.81221318 0.649721717,6.56855991 L0.649721717,6.60914844 C0.649721717,8.20305711 1.77664862,9.52282533 3.27918731,9.82742244 C3.0051079,9.89846763 2.71067318,9.93908668 2.41626898,9.93908668 C2.20304185,9.93908668 2,9.91879241 1.79694289,9.88833576 C2.21320424,11.1878402 3.42133873,12.1319967 4.86296411,12.1624838 C3.7360372,13.045727 2.32483797,13.5634902 0.791873138,13.5634902 C0.517763206,13.5634902 0.263978058,13.5533278 0,13.5229016 C1.45178776,14.4568651 3.17765494,14.9949531 5.03554167,14.9949531 Z" id="t" fill="#000000" fill-rule="nonzero"></path>
        </g>
    </g>
</svg>